Coordinates
version=1
nRows=16
nColumns=40
inDegrees=yes

Units are S.I. units (second, meters, Newtons, ...)
If the header above contains a line with 'inDegrees', this indicates whether rotational values are in degrees (yes) or radians (no).

endheader
time	pelvis_tilt	pelvis_list	pelvis_rotation	pelvis_tx	pelvis_ty	pelvis_tz	hip_flexion_r	hip_adduction_r	hip_rotation_r	knee_angle_r	knee_angle_r_beta	ankle_angle_r	subtalar_angle_r	mtp_angle_r	hip_flexion_l	hip_adduction_l	hip_rotation_l	knee_angle_l	knee_angle_l_beta	ankle_angle_l	subtalar_angle_l	mtp_angle_l	lumbar_extension	lumbar_bending	lumbar_rotation	arm_flex_r	arm_add_r	arm_rot_r	elbow_flex_r	pro_sup_r	wrist_flex_r	wrist_dev_r	arm_flex_l	arm_add_l	arm_rot_l	elbow_flex_l	pro_sup_l	wrist_flex_l	wrist_dev_l
      0.77000000	      3.44466566	     -8.43329438	     89.70520592	      0.21401979	      0.92458285	     -0.41748236	     23.13828189	      7.32889461	     -6.87785761	     18.97170060	      0.33111864	      3.47515635	      0.00000000	      0.00000000	     22.47179519	     -7.55739937	     -1.14278346	     61.99343521	      1.08198956	     -4.62215300	      0.00000000	      0.00000000	      0.40003958	      3.43859841	      0.24113734	      0.00000000	      0.00000000	      0.00000000	      0.00000000	      0.00000000	     -0.00000000	     -0.00000000	      0.00000000	     -0.00000000	     -0.00000000	      0.00000000	      0.00000000	      0.00000000	     -0.00000000
      0.78000000	      3.36238106	     -8.58877835	     89.68304374	      0.21492115	      0.92750429	     -0.43379424	     21.45776230	      7.40597916	     -6.56395372	     17.70271096	      0.30897059	      3.85481758	      0.00000000	      0.00000000	     24.58387833	     -7.50081454	     -1.28213955	     60.81693473	      1.06145575	     -3.18472120	      0.00000000	      0.00000000	      0.49297829	      3.25498354	      0.35662674	      0.00000000	      0.00000000	      0.00000000	      0.00000000	      0.00000000	      0.00000000	      0.00000000	      0.00000000	      0.00000000	      0.00000000	      0.00000000	      0.00000000	      0.00000000	      0.00000000
      0.79000000	      3.49008385	     -8.40185728	     89.61705712	      0.21604605	      0.93065948	     -0.45041018	     19.11327009	      7.80450428	     -5.95779207	     15.85612782	      0.27674164	      3.57219849	      0.00000000	      0.00000000	     26.10621038	     -7.76515524	     -1.62972224	     59.13102083	      1.03203100	     -1.81637351	      0.00000000	      0.00000000	      0.18293603	      3.28744841	      0.63746300	      0.00000000	      0.00000000	      0.00000000	      0.00000000	      0.00000000	      0.00000000	      0.00000000	      0.00000000	      0.00000000	      0.00000000	      0.00000000	      0.00000000	      0.00000000	      0.00000000
      0.80000000	      3.30331324	     -8.52993327	     89.55365659	      0.21680277	      0.93295659	     -0.46676929	     17.41177729	      7.74104953	     -5.70919400	     14.57334252	      0.25435281	      3.88283408	      0.00000000	      0.00000000	     27.78830400	     -7.59893893	     -2.09655003	     56.95200060	      0.99399993	     -1.01849698	      0.00000000	     -0.00000000	      0.23340870	      2.99210567	      0.85815450	      0.00000000	     -0.00000000	     -0.00000000	      0.00000000	      0.00000000	     -0.00000000	      0.00000000	      0.00000000	      0.00000000	      0.00000000	      0.00000000	      0.00000000	      0.00000000	      0.00000000
      0.81000000	      3.21032111	     -8.34233230	     89.45276757	      0.21758850	      0.93532215	     -0.48350751	     15.18121907	      7.81163020	     -5.37034373	     12.94354576	      0.22590749	      3.83794798	     -0.00000000	      0.00000000	     28.88556945	     -7.54286724	     -2.68434103	     54.31039561	      0.94789522	     -0.39850007	     -0.00000000	     -0.00000000	     -0.03492920	      2.79962831	      1.14158114	      0.00000000	     -0.00000000	     -0.00000000	      0.00000000	      0.00000000	     -0.00000000	     -0.00000000	     -0.00000000	      0.00000000	     -0.00000000	      0.00000000	      0.00000000	     -0.00000000	     -0.00000000
      0.82000000	      3.04536183	     -8.36551119	     89.31644195	      0.21829939	      0.93688691	     -0.50011809	     13.30971915	      7.78626965	     -5.00223142	     11.53953000	      0.20140279	      3.96884383	      0.00000000	      0.00000000	     30.05272241	     -7.36786663	     -3.34302922	     51.32149702	      0.89572910	      0.04519391	      0.00000000	      0.00000000	     -0.07091476	      2.54893393	      1.42229441	      0.00000000	      0.00000000	      0.00000000	      0.00000000	      0.00000000	      0.00000000	      0.00000000	      0.00000000	      0.00000000	      0.00000000	      0.00000000	      0.00000000	      0.00000000	      0.00000000
      0.83000000	      2.90251577	     -8.39349286	     89.13668251	      0.21894029	      0.93790913	     -0.51681071	     11.46950807	      7.77601248	     -4.62563828	     10.19035610	      0.17785527	      4.10170132	      0.00000000	      0.00000000	     31.06049072	     -7.19648787	     -4.07978181	     48.01397356	      0.83800193	      0.31259497	      0.00000000	      0.00000000	     -0.10225673	      2.33544142	      1.76426736	      0.00000000	      0.00000000	      0.00000000	      0.00000000	      0.00000000	      0.00000000	      0.00000000	      0.00000000	      0.00000000	      0.00000000	      0.00000000	      0.00000000	      0.00000000	      0.00000000
      0.84000000	      2.77443420	     -8.66400717	     88.94616816	      0.21947916	      0.93801820	     -0.53345315	      9.98008703	      7.76418223	     -4.24234559	      9.00062121	      0.15709047	      4.46599648	      0.00000000	      0.00000000	     32.23420535	     -6.97542044	     -4.76921741	     44.49405785	      0.77656781	      0.49863781	      0.00000000	      0.00000000	      0.16709992	      2.17297954	      2.08109851	      0.00000000	      0.00000000	      0.00000000	      0.00000000	      0.00000000	      0.00000000	      0.00000000	      0.00000000	      0.00000000	      0.00000000	      0.00000000	      0.00000000	      0.00000000	      0.00000000
      0.85000000	      2.68360731	     -8.71293658	     88.67170858	      0.22013595	      0.93791108	     -0.55037260	      8.19578697	      7.80334236	     -3.76042246	      7.73887299	      0.13506881	      4.64118624	      0.00000000	      0.00000000	     32.97646309	     -6.81430160	     -5.57248081	     40.66793471	      0.70978936	      0.49582596	      0.00000000	     -0.00000000	      0.19527864	      2.02458391	      2.51678578	      0.00000000	      0.00000000	     -0.00000000	      0.00000000	      0.00000000	     -0.00000000	      0.00000000	      0.00000000	      0.00000000	      0.00000000	      0.00000000	      0.00000000	     -0.00000000	      0.00000000
      0.86000000	      2.65277405	     -8.67301861	     88.33566575	      0.22074211	      0.93735060	     -0.56740851	      6.32442353	      7.88550173	     -3.25526419	      6.51123110	      0.11364242	      4.77963929	      0.00000000	     -0.00000000	     33.51260514	     -6.69456813	     -6.39616407	     36.65724260	      0.63978958	      0.43223376	      0.00000000	     -0.00000000	      0.09441788	      1.98847677	      3.02042930	     -0.00000000	     -0.00000000	     -0.00000000	      0.00000000	      0.00000000	      0.00000000	      0.00000000	      0.00000000	      0.00000000	     -0.00000000	      0.00000000	      0.00000000	     -0.00000000	      0.00000000
      0.87000000	      2.69303073	     -8.48286087	     87.97485255	      0.22129187	      0.93643789	     -0.58471442	      4.25811722	      8.00706351	     -2.82039046	      5.25938127	      0.09179352	      4.87923747	      0.00000000	      0.00000000	     33.78448383	     -6.60838652	     -7.18845239	     32.51517657	      0.56749689	      0.36095939	      0.00000000	      0.00000000	     -0.15633169	      2.03675987	      3.62562645	      0.00000000	      0.00000000	      0.00000000	      0.00000000	      0.00000000	      0.00000000	      0.00000000	      0.00000000	      0.00000000	      0.00000000	      0.00000000	      0.00000000	      0.00000000	      0.00000000
      0.88000000	      2.78416986	     -8.50171095	     87.62399694	      0.22178788	      0.93464240	     -0.60205256	      2.47397342	      8.16329330	     -2.30972119	      4.14652927	      0.07237059	      5.15375326	      0.00000000	      0.00000000	     34.24763437	     -6.50490299	     -7.78789263	     28.33371663	      0.49451664	      0.30396703	      0.00000000	      0.00000000	     -0.14929931	      2.15377495	      4.16523702	      0.00000000	      0.00000000	      0.00000000	      0.00000000	      0.00000000	      0.00000000	      0.00000000	      0.00000000	      0.00000000	      0.00000000	      0.00000000	      0.00000000	      0.00000000	      0.00000000
      0.89000000	      2.94452131	     -8.51579107	     87.25950682	      0.22225611	      0.93230282	     -0.61956854	      0.69184589	      8.36233984	     -1.78290550	      3.09252427	      0.05397473	      5.46223416	      0.00000000	      0.00000000	     34.65591732	     -6.43541057	     -8.23006788	     24.15776896	      0.42163261	      0.29102462	      0.00000000	      0.00000000	     -0.13997250	      2.35959977	      4.73342826	      0.00000000	      0.00000000	      0.00000000	      0.00000000	      0.00000000	      0.00000000	      0.00000000	      0.00000000	      0.00000000	      0.00000000	      0.00000000	      0.00000000	      0.00000000	      0.00000000
      0.90000000	      3.21010532	     -8.70694711	     86.90395707	      0.22268780	      0.92919076	     -0.63718982	     -0.84853918	      8.64951614	     -1.17944388	      2.19459027	      0.03830283	      5.92404660	      0.00000000	      0.00000000	     35.25398563	     -6.42912042	     -8.34096863	     20.11908728	      0.35114432	      0.42123608	      0.00000000	      0.00000000	      0.08520787	      2.70020055	      5.30194669	      0.00000000	      0.00000000	      0.00000000	      0.00000000	      0.00000000	      0.00000000	      0.00000000	      0.00000000	      0.00000000	      0.00000000	      0.00000000	      0.00000000	      0.00000000	      0.00000000
      0.91000000	      3.46825112	     -8.59774647	     86.51695942	      0.22311207	      0.92606662	     -0.65523578	     -2.79925672	      8.87251680	     -0.61417277	      1.19682993	      0.02088862	      6.24698596	      0.00000000	      0.00000000	     35.44020421	     -6.43514351	     -8.47414994	     16.18810305	      0.28253570	      0.53585667	      0.00000000	      0.00000000	     -0.01772710	      3.01842597	      5.90766161	      0.00000000	      0.00000000	      0.00000000	      0.00000000	      0.00000000	      0.00000000	      0.00000000	      0.00000000	      0.00000000	      0.00000000	      0.00000000	      0.00000000	      0.00000000	      0.00000000
      0.92000000	      3.83986986	     -8.72354577	     86.14067079	      0.22353598	      0.92218811	     -0.67336539	     -4.39965104	      9.18925415	      0.07685466	      0.46092731	      0.00804470	      6.74670915	      0.00000000	      0.00000000	     35.94584207	     -6.56284570	     -8.18095447	     12.68239708	      0.22134959	      1.03178010	      0.00000000	      0.00000000	      0.16451014	      3.48576265	      6.52546453	      0.00000000	      0.00000000	      0.00000000	      0.00000000	      0.00000000	      0.00000000	      0.00000000	      0.00000000	      0.00000000	      0.00000000	      0.00000000	      0.00000000	      0.00000000	      0.00000000
